<svg xmlns="http://www.w3.org/2000/svg" width="474.184" height="115" viewBox="0 0 474.184 115">
  <g id="Group_10" data-name="Group 10" transform="translate(0.136 0.487)">
    <g id="Group_2" data-name="Group 2">
      <g id="Group_1" data-name="Group 1">
        <path id="Path_1" data-name="Path 1" d="M158.164,84.088,155.075,72.9h-11.8l-4.908,11.187h-6.77L144.456,56.1h12.185L165.1,84.088Zm-7.193-26.153h-1.142L144.075,71.03h10.493Z" fill="#00ab95"/>
        <path id="Path_2" data-name="Path 2" d="M169.549,84.088l2.919-19.173h19.168l-2.708,19.173Zm15.782-17.374h-7.108l-2.37,15.577h7.279Z" fill="#00ab95"/>
        <path id="Path_3" data-name="Path 3" d="M221.68,84.088l2.5-17.374h-6.728L214.91,84.088H208.9l2.538-17.374h-6.685L202.09,84.088h-6.051L199,64.915h31.48L227.73,84.088Z" fill="#00ab95"/>
        <path id="Path_4" data-name="Path 4" d="M234.884,84.088l2.92-19.173h19.167l-2.708,19.173Zm15.782-17.374h-7.108l-2.369,15.577h7.278Z" fill="#00ab95"/>
        <path id="Path_5" data-name="Path 5" d="M261.374,84.088l2.962-19.173h14.005l-.719,1.8h-7.531l-2.666,17.374Z" fill="#00ab95"/>
        <path id="Path_6" data-name="Path 6" d="M280.5,84.088l2.962-19.173h6.093l-2.962,19.173Zm3.258-22.555.888-5.4h6.432l-.889,5.4Z" fill="#00ab95"/>
        <path id="Path_7" data-name="Path 7" d="M315.027,84.088l1.9-13.381H303.18l-1.82,13.381h-6.6l4.23-27.988h6.178l-1.735,12.772h13.751L319.047,56.1h6.178l-3.6,27.988Z" fill="#00ab95"/>
        <path id="Path_8" data-name="Path 8" d="M342.322,84.088l1.565-11.079h-7.15L335.3,82.291h5.88l-.677,1.8H328.994l1.988-12.878h13.159l.635-4.5H331.237l.634-1.8H351.08l-2.707,19.173Z" fill="#00ab95"/>
        <path id="Path_9" data-name="Path 9" d="M355.567,84.088l2.92-19.173h19.166l-.973,6.223h-6.05l.677-4.424h-7.066l-2.369,15.577h7.319l.846-5.216h6.051l-1.142,7.013Z" fill="#00ab95"/>
        <path id="Path_10" data-name="Path 10" d="M396.823,84.088l-7.151-9.677h-.17l-1.438,9.677h-6.051l4.655-30.543h6.05L389.8,72.612h.3l6.854-5.9h-3.216l.677-1.8h11.72l-10.873,8.6,8.462,10.575Z" fill="#00ab95"/>
        <path id="Path_11" data-name="Path 11" d="M407.995,84.088l2.963-19.173h19.124l-1.4,9.532H417.008l.55-1.8h5.331l.889-5.935h-7.066L414.3,82.291h7.32l.719-4.677h6.051l-1.016,6.474Z" fill="#00ab95"/>
        <path id="Path_12" data-name="Path 12" d="M434.484,84.088l2.963-19.173h14l-.719,1.8H443.2l-2.666,17.374Z" fill="#00ab95"/>
        <path id="Path_13" data-name="Path 13" d="M453.357,84.088l.762-5.575h6.051l-.509,3.742h6.009l1.1-7.519H454.8l1.48-9.821h17.772l-.72,4.819h-6.05l.465-3.02h-5.712l-.931,6.223h11.975l-1.651,11.151Z" fill="#00ab95"/>
      </g>
    </g>
    <g id="Group_9" data-name="Group 9">
      <g id="Group_7" data-name="Group 7">
        <g id="Group_4" data-name="Group 4">
          <g id="Group_3" data-name="Group 3">
            <path id="Path_14" data-name="Path 14" d="M81.349,88.321,84.1,69.186H76.222L73.333,88.321H66.669l5.126-33.634h6.664l-1.91,12.518H91.043l-3.03,21.116Z" fill="#00ab95"/>
          </g>
        </g>
        <g id="Group_6" data-name="Group 6">
          <g id="Group_5" data-name="Group 5">
            <path id="Path_15" data-name="Path 15" d="M60.022,68.6l2.023-12.2H52.8l-1.86,10.221h7.6L57.67,68.6H42.794l2.571-14.183H62.373l.821-4.952h-17.5l.82-1.981h24.83L67.842,68.6Z" fill="#00ab95"/>
          </g>
        </g>
      </g>
      <g id="Group_8" data-name="Group 8">
        <path id="Path_16" data-name="Path 16" d="M29.556,45.663a2.551,2.551,0,0,1-.009.705c-.61,2.029-1.264,4.044-1.856,6.077a27.622,27.622,0,0,0-.7,3.032,44.985,44.985,0,0,0-.32,14.54,40.517,40.517,0,0,0,2.562,9.314,44.808,44.808,0,0,0,7.074,11.578A64.217,64.217,0,0,0,46.15,100.3a11.661,11.661,0,0,0,3.924,2.13,6.758,6.758,0,0,0,4.741-.381c5.455-2.42,11.2-2.984,17.058-2.915,1.5.017,3,.149,4.493.248a2.265,2.265,0,0,1,.908.291c-3.105,1.2-6.441,1.539-9.531,2.693l.006.277c.411.167.816.349,1.232.5,2.136.779,4.142,1.923,6.449,2.232a8.9,8.9,0,0,0,4.811-.615,72.415,72.415,0,0,0,6.956-3.2,75.55,75.55,0,0,0,7.088-4.684,51.913,51.913,0,0,0,9.084-8.578,48.354,48.354,0,0,0,7.294-11.524,35.275,35.275,0,0,0,2.622-18.621A37.025,37.025,0,0,0,109.861,46.1a32.658,32.658,0,0,0-9.173-11.718,27.1,27.1,0,0,0-7.825-4.339,25.052,25.052,0,0,0-10.614-1.455,31.332,31.332,0,0,0-9.679,2.468c-2.605,1.117-5.246,2.152-7.895,3.158-2.434.925-4.89,1.792-7.357,2.625-1.087.367-2.226.582-3.339.874-.753.2-1.5.429-2.253.614A39.649,39.649,0,0,1,44,39.446a33.086,33.086,0,0,1-9.286-.794,32.6,32.6,0,0,1-14.275-7.517,67.1,67.1,0,0,1-9.213-10.57c-1.415-1.932-2.7-3.959-4.138-5.873C4.846,11.709,2.532,8.783.239,5.842c-.544-.7-.524-.777.249-1.187a40.174,40.174,0,0,1,7.937-3.2C10.44.883,12.508.485,14.57.1a40.345,40.345,0,0,1,9.524-.517A44.7,44.7,0,0,1,35.5,1.67,38.327,38.327,0,0,1,43.55,5.293,32.048,32.048,0,0,1,52.337,13a30.045,30.045,0,0,1,4.277,7.539c.532,1.348.88,2.769,1.389,4.127A12.3,12.3,0,0,0,59.166,27c.533.826,1.289.856,1.759.019a17.921,17.921,0,0,0,1.6-3.57c.721-2.4,1.189-4.886,1.917-7.289a22.341,22.341,0,0,1,4.475-8.8c1.666-1.842,3.645-3.069,6.275-2.641A3.819,3.819,0,0,1,77.9,6.458a1.327,1.327,0,0,1-.1,1.72c-1.789,2.08-3.662,4.095-5.347,6.256-1.639,2.1-3.159,4.308-4.6,6.555-1.264,1.976-2.313,4.088-3.515,6.1a11.247,11.247,0,0,1-1.569,2.012,2.708,2.708,0,0,1-4.161.163c-1.94-1.7-3.815-3.485-5.755-5.19A57.366,57.366,0,0,0,39.9,15.068a70.485,70.485,0,0,0-7.963-3.246,53.089,53.089,0,0,0-6.271-1.4c-1.234-.252-2.482-.437-3.707-.765A35.666,35.666,0,0,1,38.715,11.6a36.916,36.916,0,0,1,14.364,8.765l.227-.114A3.852,3.852,0,0,0,53.1,19.3a28.434,28.434,0,0,0-6.944-8.772A32.31,32.31,0,0,0,36.63,4.862,32.582,32.582,0,0,0,23.14,2.639a29.082,29.082,0,0,0-9.818,2.175c-1.143.482-2.231,1.1-3.343,1.655-.568.285-.292.669-.055.964.648.81,1.358,1.571,2.005,2.382q3.126,3.917,6.223,7.857A61.654,61.654,0,0,0,27.91,28.114a30.6,30.6,0,0,0,9.1,5.008,34.26,34.26,0,0,0,14.623,1.509A40.212,40.212,0,0,0,61.083,32.6c2.372-.828,4.749-1.646,7.078-2.582,1.921-.771,3.746-1.778,5.664-2.557a67.728,67.728,0,0,1,6.56-2.383,32.374,32.374,0,0,1,10.534-1.321,25.327,25.327,0,0,1,11.652,3.338,28.2,28.2,0,0,1,9.752,9.609,43.114,43.114,0,0,1,5.3,12.557A57.562,57.562,0,0,1,119.7,65.686a42.262,42.262,0,0,1-2.059,11.4,51,51,0,0,1-3.733,8.763,58.808,58.808,0,0,1-6.425,9.491,65.036,65.036,0,0,1-11.19,10.674,53.425,53.425,0,0,1-10.217,6.179,48.752,48.752,0,0,1-4.622,1.812,10.927,10.927,0,0,1-6.423.048c-2.617-.732-5.181-1.658-7.8-2.375a34.263,34.263,0,0,0-10.617-1.253c-2.375.106-4.749.3-7.124.32a16.308,16.308,0,0,1-9.454-3.045,62.3,62.3,0,0,1-9.466-7.731,39.351,39.351,0,0,1-6.712-8.666,52.494,52.494,0,0,1-3.2-6.649,32.119,32.119,0,0,1-1.977-12.435A38.171,38.171,0,0,1,20.963,60.6a56.039,56.039,0,0,1,6.821-12.922c.325-.475.645-.954.99-1.415a7.8,7.8,0,0,1,.6-.644Z" fill="#00ab95"/>
      </g>
    </g>
  </g>
</svg>
